<mxfile host="app.diagrams.net" agent="Mozilla/5.0 (Windows NT 10.0; Win64; x64) AppleWebKit/537.36 (KHTML, like Gecko) Chrome/134.0.0.0 Safari/537.36" version="27.0.9">
  <diagram name="Seite-1" id="EmfAa4jmFEIiRppx3EkN">
    <mxGraphModel dx="3381" dy="927" grid="1" gridSize="10" guides="1" tooltips="1" connect="1" arrows="1" fold="1" page="1" pageScale="1" pageWidth="1654" pageHeight="1169" math="0" shadow="0">
      <root>
        <mxCell id="0" />
        <mxCell id="1" parent="0" />
        <mxCell id="YkfXYCHmqn6DrB9uwX6o-27" value="&lt;span style=&quot;text-align: right;&quot;&gt;CI/CD Pipeline&lt;/span&gt;" style="rounded=0;whiteSpace=wrap;html=1;strokeColor=#d79b00;align=center;verticalAlign=bottom;fontFamily=Helvetica;fontSize=20;fontStyle=1;textDirection=ltr;fillColor=#ffe6cc;labelPosition=center;verticalLabelPosition=top;" parent="1" vertex="1">
          <mxGeometry x="-1006" y="369" width="340" height="391" as="geometry" />
        </mxCell>
        <mxCell id="YkfXYCHmqn6DrB9uwX6o-26" value="API Layer" style="rounded=0;whiteSpace=wrap;html=1;strokeColor=#6c8ebf;align=center;verticalAlign=bottom;fontFamily=Helvetica;fontSize=20;fontColor=default;fontStyle=1;textDirection=ltr;fillColor=#dae8fc;labelPosition=center;verticalLabelPosition=top;" parent="1" vertex="1">
          <mxGeometry x="-1006" y="130" width="380" height="200" as="geometry" />
        </mxCell>
        <mxCell id="YkfXYCHmqn6DrB9uwX6o-2" value="&lt;font style=&quot;font-size: 18px;&quot;&gt;Mobile App Flutter&lt;/font&gt;" style="sketch=0;outlineConnect=0;fontColor=#232F3E;gradientColor=none;fillColor=#232F3D;strokeColor=none;dashed=0;verticalLabelPosition=bottom;verticalAlign=top;align=center;html=1;fontSize=12;fontStyle=0;aspect=fixed;pointerEvents=1;shape=mxgraph.aws4.user;" parent="1" vertex="1">
          <mxGeometry x="-1240" y="180" width="120" height="120" as="geometry" />
        </mxCell>
        <mxCell id="YkfXYCHmqn6DrB9uwX6o-13" style="edgeStyle=orthogonalEdgeStyle;rounded=0;orthogonalLoop=1;jettySize=auto;html=1;endSize=11;strokeWidth=4;" parent="1" source="YkfXYCHmqn6DrB9uwX6o-4" target="YkfXYCHmqn6DrB9uwX6o-5" edge="1">
          <mxGeometry relative="1" as="geometry" />
        </mxCell>
        <mxCell id="YkfXYCHmqn6DrB9uwX6o-4" value="&lt;font style=&quot;font-size: 18px;&quot;&gt;API Gateways&lt;/font&gt;" style="sketch=0;points=[[0,0,0],[0.25,0,0],[0.5,0,0],[0.75,0,0],[1,0,0],[0,1,0],[0.25,1,0],[0.5,1,0],[0.75,1,0],[1,1,0],[0,0.25,0],[0,0.5,0],[0,0.75,0],[1,0.25,0],[1,0.5,0],[1,0.75,0]];outlineConnect=0;fontColor=#232F3E;fillColor=#8C4FFF;strokeColor=#ffffff;dashed=0;verticalLabelPosition=bottom;verticalAlign=top;align=center;html=1;fontSize=12;fontStyle=0;aspect=fixed;shape=mxgraph.aws4.resourceIcon;resIcon=mxgraph.aws4.api_gateway;" parent="1" vertex="1">
          <mxGeometry x="-970" y="200" width="78" height="78" as="geometry" />
        </mxCell>
        <mxCell id="YkfXYCHmqn6DrB9uwX6o-15" value="&lt;font style=&quot;font-size: 16px;&quot;&gt;Get/Put Data&lt;/font&gt;" style="edgeStyle=orthogonalEdgeStyle;rounded=0;orthogonalLoop=1;jettySize=auto;html=1;endSize=11;strokeWidth=4;" parent="1" source="YkfXYCHmqn6DrB9uwX6o-5" target="YkfXYCHmqn6DrB9uwX6o-6" edge="1">
          <mxGeometry relative="1" as="geometry">
            <mxPoint x="-590" y="238" as="targetPoint" />
          </mxGeometry>
        </mxCell>
        <mxCell id="YkfXYCHmqn6DrB9uwX6o-5" value="&lt;font style=&quot;font-size: 17px;&quot;&gt;Lambda&amp;nbsp; &amp;nbsp; &amp;nbsp; &amp;nbsp; &amp;nbsp; &amp;nbsp; &amp;nbsp; &amp;nbsp; &amp;nbsp; &amp;nbsp;&amp;nbsp;&lt;/font&gt;&lt;div style=&quot;text-align: left;&quot;&gt;&lt;span style=&quot;font-size: 17px; background-color: transparent; color: light-dark(rgb(35, 47, 62), rgb(189, 199, 212));&quot;&gt;Router&lt;/span&gt;&lt;/div&gt;" style="sketch=0;points=[[0,0,0],[0.25,0,0],[0.5,0,0],[0.75,0,0],[1,0,0],[0,1,0],[0.25,1,0],[0.5,1,0],[0.75,1,0],[1,1,0],[0,0.25,0],[0,0.5,0],[0,0.75,0],[1,0.25,0],[1,0.5,0],[1,0.75,0]];outlineConnect=0;fontColor=#232F3E;fillColor=#ED7100;strokeColor=#ffffff;dashed=0;verticalLabelPosition=bottom;verticalAlign=top;align=center;html=1;fontSize=12;fontStyle=0;aspect=fixed;shape=mxgraph.aws4.resourceIcon;resIcon=mxgraph.aws4.lambda;" parent="1" vertex="1">
          <mxGeometry x="-750" y="200" width="78" height="78" as="geometry" />
        </mxCell>
        <mxCell id="YkfXYCHmqn6DrB9uwX6o-6" value="&lt;font style=&quot;font-size: 18px;&quot;&gt;S3(data or weights)&lt;/font&gt;" style="sketch=0;points=[[0,0,0],[0.25,0,0],[0.5,0,0],[0.75,0,0],[1,0,0],[0,1,0],[0.25,1,0],[0.5,1,0],[0.75,1,0],[1,1,0],[0,0.25,0],[0,0.5,0],[0,0.75,0],[1,0.25,0],[1,0.5,0],[1,0.75,0]];outlineConnect=0;fontColor=#232F3E;fillColor=#7AA116;strokeColor=#ffffff;dashed=0;verticalLabelPosition=bottom;verticalAlign=top;align=center;html=1;fontSize=12;fontStyle=0;aspect=fixed;shape=mxgraph.aws4.resourceIcon;resIcon=mxgraph.aws4.s3;" parent="1" vertex="1">
          <mxGeometry x="-450" y="200" width="78" height="78" as="geometry" />
        </mxCell>
        <mxCell id="YkfXYCHmqn6DrB9uwX6o-7" value="&lt;font style=&quot;font-size: 18px;&quot;&gt;Secrets Manager&lt;/font&gt;&lt;div&gt;&lt;font style=&quot;font-size: 18px;&quot;&gt;&amp;nbsp;API &amp;amp; Keys&lt;/font&gt;&lt;/div&gt;" style="sketch=0;points=[[0,0,0],[0.25,0,0],[0.5,0,0],[0.75,0,0],[1,0,0],[0,1,0],[0.25,1,0],[0.5,1,0],[0.75,1,0],[1,1,0],[0,0.25,0],[0,0.5,0],[0,0.75,0],[1,0.25,0],[1,0.5,0],[1,0.75,0]];outlineConnect=0;fontColor=#232F3E;fillColor=#DD344C;strokeColor=#ffffff;dashed=0;verticalLabelPosition=bottom;verticalAlign=top;align=center;html=1;fontSize=12;fontStyle=0;aspect=fixed;shape=mxgraph.aws4.resourceIcon;resIcon=mxgraph.aws4.secrets_manager;" parent="1" vertex="1">
          <mxGeometry x="-970" y="420" width="78" height="78" as="geometry" />
        </mxCell>
        <mxCell id="YkfXYCHmqn6DrB9uwX6o-8" value="&lt;font style=&quot;font-size: 18px;&quot;&gt;CodePipeline&lt;/font&gt;" style="sketch=0;points=[[0,0,0],[0.25,0,0],[0.5,0,0],[0.75,0,0],[1,0,0],[0,1,0],[0.25,1,0],[0.5,1,0],[0.75,1,0],[1,1,0],[0,0.25,0],[0,0.5,0],[0,0.75,0],[1,0.25,0],[1,0.5,0],[1,0.75,0]];outlineConnect=0;fontColor=#232F3E;fillColor=#C925D1;strokeColor=#ffffff;dashed=0;verticalLabelPosition=bottom;verticalAlign=top;align=center;html=1;fontSize=12;fontStyle=0;aspect=fixed;shape=mxgraph.aws4.resourceIcon;resIcon=mxgraph.aws4.codepipeline;" parent="1" vertex="1">
          <mxGeometry x="-970" y="640" width="78" height="78" as="geometry" />
        </mxCell>
        <mxCell id="YkfXYCHmqn6DrB9uwX6o-9" value="&lt;font style=&quot;font-size: 18px;&quot;&gt;CodeBuild&amp;nbsp;&lt;/font&gt;&lt;div&gt;&lt;font style=&quot;font-size: 18px;&quot;&gt;build +tests&lt;/font&gt;&lt;/div&gt;" style="sketch=0;points=[[0,0,0],[0.25,0,0],[0.5,0,0],[0.75,0,0],[1,0,0],[0,1,0],[0.25,1,0],[0.5,1,0],[0.75,1,0],[1,1,0],[0,0.25,0],[0,0.5,0],[0,0.75,0],[1,0.25,0],[1,0.5,0],[1,0.75,0]];outlineConnect=0;fontColor=#232F3E;fillColor=#C925D1;strokeColor=#ffffff;dashed=0;verticalLabelPosition=bottom;verticalAlign=top;align=center;html=1;fontSize=12;fontStyle=0;aspect=fixed;shape=mxgraph.aws4.resourceIcon;resIcon=mxgraph.aws4.codebuild;" parent="1" vertex="1">
          <mxGeometry x="-790" y="510" width="78" height="78" as="geometry" />
        </mxCell>
        <mxCell id="YkfXYCHmqn6DrB9uwX6o-17" value="&lt;font style=&quot;font-size: 16px;&quot;&gt;HTTPS&lt;/font&gt;" style="edgeStyle=orthogonalEdgeStyle;rounded=0;orthogonalLoop=1;jettySize=auto;html=1;entryX=0;entryY=0.5;entryDx=0;entryDy=0;entryPerimeter=0;endSize=11;strokeWidth=4;" parent="1" source="YkfXYCHmqn6DrB9uwX6o-2" target="YkfXYCHmqn6DrB9uwX6o-4" edge="1">
          <mxGeometry x="-0.2854" y="10" relative="1" as="geometry">
            <Array as="points">
              <mxPoint x="-1080" y="240" />
            </Array>
            <mxPoint x="1" as="offset" />
          </mxGeometry>
        </mxCell>
        <mxCell id="YkfXYCHmqn6DrB9uwX6o-19" value="&lt;font style=&quot;font-size: 16px; background-color: light-dark(rgb(255, 230, 204), rgb(237, 237, 237));&quot;&gt;Get / Put&lt;/font&gt;" style="edgeStyle=orthogonalEdgeStyle;rounded=0;orthogonalLoop=1;jettySize=auto;html=1;entryX=0.5;entryY=1;entryDx=0;entryDy=0;entryPerimeter=0;strokeWidth=4;endSize=11;" parent="1" source="YkfXYCHmqn6DrB9uwX6o-7" target="YkfXYCHmqn6DrB9uwX6o-5" edge="1">
          <mxGeometry x="-0.3431" y="28" relative="1" as="geometry">
            <mxPoint as="offset" />
          </mxGeometry>
        </mxCell>
        <mxCell id="YkfXYCHmqn6DrB9uwX6o-23" style="edgeStyle=orthogonalEdgeStyle;rounded=0;orthogonalLoop=1;jettySize=auto;html=1;strokeWidth=4;endSize=11;entryX=1;entryY=0.5;entryDx=0;entryDy=0;entryPerimeter=0;" parent="1" source="YkfXYCHmqn6DrB9uwX6o-8" target="YkfXYCHmqn6DrB9uwX6o-9" edge="1">
          <mxGeometry relative="1" as="geometry">
            <Array as="points">
              <mxPoint x="-682" y="670" />
              <mxPoint x="-682" y="549" />
            </Array>
          </mxGeometry>
        </mxCell>
        <mxCell id="O-2HojYy6VNgxCa7jfTr-10" value="&lt;font style=&quot;font-size: 16px; background-color: light-dark(rgb(255, 230, 204), rgb(237, 237, 237));&quot;&gt;Get&lt;/font&gt;" style="edgeStyle=orthogonalEdgeStyle;rounded=0;orthogonalLoop=1;jettySize=auto;html=1;entryX=0;entryY=0.5;entryDx=0;entryDy=0;entryPerimeter=0;strokeWidth=4;endSize=11;" edge="1" parent="1" source="YkfXYCHmqn6DrB9uwX6o-7" target="YkfXYCHmqn6DrB9uwX6o-9">
          <mxGeometry relative="1" as="geometry">
            <Array as="points">
              <mxPoint x="-830" y="459" />
              <mxPoint x="-830" y="549" />
            </Array>
          </mxGeometry>
        </mxCell>
        <mxCell id="O-2HojYy6VNgxCa7jfTr-18" value="Text" style="text;html=1;align=center;verticalAlign=middle;whiteSpace=wrap;rounded=0;" vertex="1" parent="1">
          <mxGeometry x="-910" y="410" width="60" height="30" as="geometry" />
        </mxCell>
        <mxCell id="O-2HojYy6VNgxCa7jfTr-19" value="&lt;font style=&quot;font-size: 31px; color: rgb(0, 0, 0);&quot;&gt;&lt;b style=&quot;&quot;&gt;&lt;u style=&quot;&quot;&gt;TinyLlama MVP Diagramm&lt;/u&gt;&lt;/b&gt;&lt;/font&gt;" style="text;html=1;align=center;verticalAlign=middle;whiteSpace=wrap;rounded=0;" vertex="1" parent="1">
          <mxGeometry x="-1120" y="40" width="550" height="30" as="geometry" />
        </mxCell>
      </root>
    </mxGraphModel>
  </diagram>
</mxfile>
